#!OML:ASF F:\VICON\USERDATA\INSTALL\rory3\rory3.ASF
:FULLY-SPECIFIED
:DEGREES
1287
root -1.09867 14.8719 13.7459 122.599 60.7124 128.045
lowerback -34.9844 0.628047 31.7011
upperback -12.234 -8.033 2.19279
thorax -1.04854 -4.74651 -15.0306
lowerneck 7.16444 -13.4043 -6.36277
upperneck 43.5126 -11.4324 -17.6643
head 12.9266 -6.40272 -6.51272
rclavicle -5.725e-014 -2.54444e-014
rhumerus -21.7058 -18.2358 30.517
rradius 39.2805
rwrist -7.42837
rhand -17.8233 -46.0019
rfingers 7.12502
rthumb -171.559 464.187
lclavicle -5.725e-014 -2.54444e-014
lhumerus 11.3267 8.52217 9.01505
lradius 25.2509
lwrist 43.8246
lhand -35.1968 -8.86623
lfingers 7.12502
lthumb -8.33471 20.9493
rfemur -46.3606 3.76273 61.3588
rtibia 45.4589
rfoot 2.67365 -18.3819
rtoes 27.6315
lfemur -12.9127 27.0385 12.1275
ltibia 92.7439
lfoot 6.68373 -10.7539
ltoes -3.8627
1288
root -1.0757 14.9902 13.8928 123.394 60.5915 128.815
lowerback -35.2954 0.628987 31.712
upperback -12.1921 -8.13978 2.27105
thorax -0.928506 -4.7616 -14.9756
lowerneck 7.25429 -13.4098 -6.95859
upperneck 43.4571 -11.5127 -17.3363
head 12.9842 -6.48337 -6.29528
rclavicle 3.81667e-014 -7.31528e-014
rhumerus -21.4138 -18.4015 30.5912
rradius 38.9539
rwrist -7.43297
rhand -18.0437 -44.8934
rfingers 7.12502
rthumb -171.772 465.287
lclavicle 3.81667e-014 -7.31528e-014
lhumerus 11.334 8.86808 9.34008
lradius 25.1656
lwrist 43.4464
lhand -35.009 -8.70554
lfingers 7.12502
lthumb -8.1535 21.1172
rfemur -47.4459 4.00875 61.0165
rtibia 46.8595
rfoot 1.09901 -18.6128
rtoes 29.5433
lfemur -12.7771 26.9582 12.1575
ltibia 91.56
lfoot 7.35856 -10.9282
ltoes -4.74986
1289
root -1.08393 14.9934 13.8832 124.29 60.5662 129.696
lowerback -35.3092 0.482251 31.8267
upperback -12.4275 -8.27485 2.3896
thorax -1.26705 -4.8838 -14.8894
lowerneck 7.78231 -13.4121 -7.01393
upperneck 43.3568 -11.4754 -17.5639
head 12.827 -6.47092 -6.31279
rclavicle -9.22361e-014 1.7175e-013
rhumerus -21.1469 -18.3457 30.2942
rradius 39.0684
rwrist -7.35855
rhand -17.9226 -44.5809
rfingers 7.12502
rthumb -171.655 465.604
lclavicle -9.22361e-014 1.7175e-013
lhumerus 11.064 8.3378 9.17486
lradius 25.221
lwrist 43.7035
lhand -35.0665 -8.67758
lfingers 7.12502
lthumb -8.20891 21.1429
rfemur -47.8097 4.1494 61.1861
rtibia 47.4407
rfoot -1.47681 -20.4403
rtoes 35.3403
lfemur -13.0923 26.7643 12.2317
ltibia 91.4771
lfoot 7.38349 -10.8309
ltoes -4.69147
1290
root -1.09523 14.9796 13.8527 125.144 60.5469 130.531
lowerback -35.4465 0.409579 31.9438
upperback -12.5269 -8.40361 2.48633
thorax -1.40295 -4.96258 -14.8417
lowerneck 7.90324 -13.4187 -6.85199
upperneck 43.4688 -11.3665 -17.8934
head 12.8159 -6.41461 -6.45909
rclavicle 6.04305e-014 0
rhumerus -20.464 -17.9398 30.1212
rradius 38.7904
rwrist -7.68838
rhand -17.9365 -45.4195
rfingers 7.12502
rthumb -171.668 464.765
lclavicle 6.04305e-014 0
lhumerus 10.9103 7.95362 9.08259
lradius 25.2164
lwrist 43.9613
lhand -35.0552 -9.04807
lfingers 7.12502
lthumb -8.19809 20.7729
rfemur -48.1689 3.79327 61.6046
rtibia 47.813
rfoot -0.187844 -19.5557
rtoes 32.1579
lfemur -13.5084 26.6538 12.3659
ltibia 91.6371
lfoot 7.51739 -10.6365
ltoes -3.422
1291
root -1.10546 14.9642 13.8235 125.826 60.4278 131.177
lowerback -35.7181 0.392432 31.8957
upperback -12.4851 -8.50407 2.516
thorax -1.28741 -4.97946 -14.8194
lowerneck 7.89078 -13.4792 -6.64512
upperneck 43.4724 -11.4287 -17.9869
head 12.7784 -6.41808 -6.52444
rclavicle -1.90833e-014 -3.49861e-014
rhumerus -20.7539 -18.0683 30.1123
rradius 39.0368
rwrist -7.2155
rhand -17.3205 -45.1653
rfingers 7.12502
rthumb -171.074 465.043
lclavicle -1.90833e-014 -3.49861e-014
lhumerus 10.986 7.77265 9.02143
lradius 25.214
lwrist 44.1643
lhand -35.0608 -9.03797
lfingers 7.12502
lthumb -8.20348 20.7828
rfemur -48.4275 3.51878 61.8403
rtibia 47.8643
rfoot 0.0502167 -19.453
rtoes 31.7492
lfemur -13.8401 26.7568 12.5083
ltibia 91.9338
lfoot 7.57869 -10.7815
ltoes -3.45526
